 <svg version="1.0" xmlns="http://www.w3.org/2000/svg"  width="300.000000pt" height="169.000000pt" viewBox="0 0 300.000000 169.000000"  preserveAspectRatio="xMidYMid meet">  <g transform="translate(0.000000,169.000000) scale(0.100000,-0.100000)" fill="#ffffff" stroke="none"> <path d="M1543 1650 c-394 -58 -693 -395 -694 -784 -1 -84 5 -121 35 -235 81 -301 113 -451 99 -463 -22 -18 -16 -85 9 -102 54 -38 118 -5 118 62 0 32 6 40 36 60 20 13 53 30 73 37 35 12 38 11 58 -11 27 -31 75 -32 104 -3 18 18 20 29 16 64 -6 38 -4 44 25 66 18 13 46 31 62 40 29 16 32 16 59 -7 35 -29 56 -30 91 -3 30 23 35 72 11 99 -13 14 -11 20 17 54 18 22 52 52 77 67 44 29 45 29 63 9 23 -25 69 -26 99 -2 28 23 30 73 4 102 -19 21 -19 22 0 57 11 19 39 52 63 74 41 36 46 37 65 24 30 -21 60 -19 91 6 34 26 35 71 3 103 -22 22 -23 25 -9 52 29 56 64 96 76 84 20 -20 73 -11 95 16 28 36 26 70 -5 99 -24 22 -25 27 -15 58 6 19 24 54 40 79 26 41 31 44 64 40 71 -8 108 82 51 127 -32 25 -52 26 -82 5 -21 -14 -34 -13 -180 21 -86 20 -200 48 -252 62 -205 55 -249 60 -367 43z m144 -72 c-25 -24 -48 -55 -52 -70 l-7 -27 -46 18 c-26 10 -64 21 -84 25 -44 8 -48 23 -13 56 29 27 73 37 174 39 l74 1 -46 -42z m161 6 c32 -8 63 -17 71 -20 9 -3 -2 -18 -31 -43 -24 -22 -53 -59 -63 -83 -10 -24 -19 -44 -20 -45 -1 -2 -134 66 -143 73 -2 1 4 18 13 38 14 28 93 96 113 96 2 0 29 -7 60 -16z m-419 -24 c-11 -29 -13 -30 -72 -30 -33 0 -58 2 -55 5 6 6 118 53 130 54 4 1 2 -12 -3 -29z m641 -32 c33 -6 60 -15 60 -18 0 -3 -16 -22 -36 -41 -40 -38 -84 -117 -84 -150 0 -13 -5 -19 -12 -16 -7 2 -46 19 -86 37 -80 36 -81 40 -39 108 23 39 106 104 124 97 7 -2 39 -10 73 -17z m-738 -58 c-16 -28 -20 -30 -57 -24 -65 10 -75 21 -30 32 107 28 107 28 87 -8z m923 16 c67 -18 74 -44 28 -104 -18 -24 -39 -66 -48 -94 -23 -78 -35 -82 -119 -41 -67 32 -71 36 -68 64 4 45 28 86 83 141 53 53 53 53 124 34z m155 -27 c0 -22 -36 -35 -55 -19 -22 18 -18 39 8 49 26 10 47 -3 47 -30z m-872 16 l52 -16 -45 -43 c-25 -23 -45 -50 -45 -60 0 -15 -6 -14 -42 9 -24 15 -57 33 -75 40 -24 11 -30 19 -26 35 13 50 85 63 181 35z m168 -77 c32 -17 61 -32 62 -34 2 -1 -15 -20 -39 -41 -23 -21 -48 -53 -56 -70 l-13 -32 -65 47 c-36 26 -65 53 -65 60 0 33 72 102 106 102 6 0 37 -14 70 -32z m-446 12 c0 -6 -7 -13 -15 -17 -9 -3 -23 -19 -31 -35 l-16 -30 -39 38 c-28 27 -35 40 -26 46 18 12 127 10 127 -2z m123 -46 c81 -41 82 -42 34 -78 -23 -17 -48 -45 -57 -61 -8 -17 -16 -32 -18 -34 -5 -9 -112 103 -112 117 0 19 64 82 84 82 9 0 40 -12 69 -26z m-229 -69 c-10 -5 -28 -20 -41 -32 -13 -13 -26 -23 -28 -23 -7 0 -6 91 1 118 7 23 7 23 46 -15 35 -34 37 -39 22 -48z m750 9 l77 -36 -40 -30 c-25 -18 -51 -50 -68 -86 l-28 -57 -72 49 c-40 28 -73 56 -73 63 0 28 32 74 72 103 22 17 44 30 48 30 5 0 42 -16 84 -36z m-854 -49 c0 -13 4 -35 9 -48 8 -21 6 -26 -25 -40 l-34 -17 5 28 c16 75 28 111 36 106 5 -3 9 -16 9 -29z m569 -51 c11 -10 9 -15 -15 -27 -39 -21 -90 -75 -104 -111 l-11 -30 -59 59 c-47 46 -59 64 -54 80 13 39 48 78 88 95 l40 19 51 -36 c27 -20 56 -42 64 -49z m-362 14 c55 -54 63 -68 39 -68 -20 0 -75 -48 -97 -83 l-17 -29 -31 53 c-44 75 -47 96 -24 127 17 23 57 51 73 52 2 0 28 -23 57 -52z m903 -57 c0 -13 -14 -39 -31 -59 -18 -20 -40 -55 -50 -78 -11 -23 -26 -45 -35 -48 -11 -4 -42 11 -86 41 -38 26 -71 50 -73 53 -6 10 23 81 42 102 10 12 35 33 56 49 l38 28 69 -32 c57 -26 69 -36 70 -56z m-1190 -21 c0 -56 -2 -61 -26 -71 -15 -5 -28 -8 -30 -6 -4 4 46 137 52 137 2 0 4 -27 4 -60z m1289 43 c12 -23 -4 -53 -29 -53 -25 0 -39 48 -19 61 21 13 37 11 48 -8z m-508 -70 c61 -41 69 -49 54 -58 -60 -34 -102 -76 -125 -122 -14 -29 -27 -52 -30 -52 -3 -1 -35 28 -70 64 l-64 65 22 45 c23 47 91 105 124 105 10 0 50 -21 89 -47z m-645 -15 c14 -29 33 -61 42 -71 14 -16 14 -19 2 -27 -8 -6 -20 -10 -27 -10 -6 0 -27 -18 -46 -41 l-36 -41 -10 39 c-31 107 -26 164 17 187 15 9 28 15 29 16 2 0 15 -24 29 -52z m298 -27 l59 -60 -34 -14 c-32 -13 -91 -71 -114 -111 -9 -15 -17 -9 -58 49 l-48 66 23 42 c16 29 37 49 68 65 24 12 45 22 45 22 0 0 27 -27 59 -59z m-428 -58 c6 -29 27 -96 38 -123 5 -12 -5 -21 -34 -34 -22 -10 -50 -31 -62 -47 -12 -16 -25 -29 -30 -29 -10 0 -9 99 1 163 8 48 42 97 68 97 7 0 15 -12 19 -27z m1027 -93 c-3 -10 -24 -32 -47 -50 -24 -17 -60 -58 -82 -91 -21 -32 -45 -59 -53 -59 -9 0 -43 28 -77 61 l-62 62 14 41 c18 50 76 112 127 136 l39 18 73 -50 c54 -37 71 -55 68 -68z m-443 -5 c35 -35 62 -66 59 -67 -2 -2 -26 -15 -54 -29 -44 -23 -87 -67 -120 -123 -8 -15 -17 -6 -57 53 -27 39 -48 79 -48 89 0 33 59 102 103 123 23 10 44 19 47 19 3 0 34 -29 70 -65z m-326 -11 c27 -36 47 -66 45 -68 -2 -1 -19 -8 -37 -16 -18 -7 -48 -31 -67 -53 -19 -22 -37 -39 -39 -36 -2 2 -18 33 -36 68 -31 63 -32 65 -16 98 15 31 67 73 92 73 5 0 32 -29 58 -66z m868 30 c10 -22 10 -28 -5 -39 -41 -30 -77 14 -41 49 22 22 33 20 46 -10z m-1027 -164 c19 -38 35 -71 35 -73 0 -3 -20 -12 -45 -21 -27 -11 -60 -35 -84 -62 l-40 -45 -11 43 c-6 24 -15 56 -20 71 -7 21 -6 36 4 55 21 40 91 101 118 102 4 0 24 -31 43 -70z m651 -21 c70 -70 72 -88 14 -114 -39 -17 -102 -73 -128 -112 -25 -39 -47 -28 -101 48 l-50 72 19 36 c33 64 117 131 165 131 11 0 47 -27 81 -61z m-368 -23 l51 -74 -44 -16 c-27 -11 -61 -36 -88 -66 l-44 -49 -36 81 -37 81 21 34 c23 36 84 83 109 83 9 0 40 -33 68 -74z m520 -62 c4 -30 -21 -48 -47 -34 -25 13 -26 23 -5 45 21 21 48 15 52 -11z m-714 -80 c41 -87 43 -94 19 -94 -33 -1 -101 -38 -148 -81 -25 -23 -47 -40 -49 -38 -1 2 -9 36 -16 76 -12 68 -12 73 9 107 25 39 69 75 115 93 17 6 32 12 32 12 1 1 18 -33 38 -75z m321 -40 c54 -78 53 -96 -10 -125 -23 -11 -61 -36 -83 -55 -22 -19 -46 -34 -54 -34 -15 0 -78 120 -78 148 0 26 62 96 102 115 58 29 72 23 123 -49z m-230 -153 c30 -60 32 -71 20 -81 -8 -7 -15 -18 -15 -25 0 -7 -15 -16 -33 -19 -19 -3 -60 -22 -92 -41 -84 -51 -99 -46 -120 35 -14 53 -14 53 16 91 39 49 133 106 181 109 4 0 23 -31 43 -69z m360 39 c0 -20 -6 -26 -28 -28 -32 -4 -46 20 -26 44 19 24 54 14 54 -16z m-265 -145 c17 -21 3 -57 -22 -53 -30 4 -45 32 -29 52 17 20 35 20 51 1z m-285 -154 c0 -34 -32 -52 -50 -27 -19 25 -2 58 28 54 16 -2 22 -10 22 -27z"/> </g> </svg> 